<svg width="86" height="86" viewBox="0 0 86 86" fill="none" xmlns="http://www.w3.org/2000/svg">
<path d="M25.548 62.0201C35.7404 63.3862 41.0513 68.9101 46.6343 67.4901C53.2212 65.8147 57.9762 59.61 66.0582 59.3259C68.5254 59.2391 76.4929 58.8786 80.8745 55.417C85.2561 51.9555 84.2736 45.4606 78.8627 39.6778C76.1229 36.7496 78.6889 33.9073 78.8121 29.5584C78.9352 25.2095 75.5372 21.3876 64.4492 22.2131C53.4996 23.0284 46.2168 20.4845 44.222 19.8621C42.2271 19.2398 35.4002 15.2915 28.6064 21.2278C24.1224 25.1458 19.5837 23.8579 16.0462 27.2886C12.5087 30.7194 12.9401 37.0334 10.2036 42.4967C8.55359 45.7909 -0.957059 50.4705 2.92218 56.4112C6.80142 62.3519 15.3556 60.6541 25.548 62.0201Z" fill="white"/>
<path fill-rule="evenodd" clip-rule="evenodd" d="M37.8474 49.3756C44.4958 49.7706 51.6189 48.5951 52.0301 41.6753C52.4412 34.7556 47.3849 28.8258 40.7365 28.4308C34.0881 28.0358 28.3653 33.3251 27.9541 40.2449C27.543 47.1646 31.199 48.9806 37.8474 49.3756ZM35.7306 37.995C36.9517 38.0675 38.0004 37.1364 38.073 35.9153C38.1456 34.6942 37.2144 33.6454 35.9933 33.5729C34.7722 33.5003 33.7234 34.4314 33.6509 35.6526C33.5783 36.8737 34.5094 37.9224 35.7306 37.995Z" fill="#F7CD55"/>
</svg>
