<svg width="86" height="86" fill="none" xmlns="http://www.w3.org/2000/svg"><path d="M25.548 62.02c10.192 1.366 15.503 6.89 21.086 5.47 6.587-1.675 11.342-7.88 19.424-8.164 2.467-.087 10.435-.447 14.816-3.909 4.382-3.462 3.4-9.956-2.011-15.74-2.74-2.927-.174-5.77-.05-10.119.122-4.349-3.276-8.17-14.364-7.345-10.95.815-18.232-1.729-20.227-2.35-1.995-.623-8.822-4.572-15.616 1.365-4.484 3.918-9.022 2.63-12.56 6.06-3.537 3.431-3.106 9.745-5.842 15.209C8.554 45.79-.957 50.47 2.922 56.41c3.88 5.94 12.434 4.243 22.626 5.61z" fill="#fff"/><path fill-rule="evenodd" clip-rule="evenodd" d="M37.847 49.376c6.649.395 13.772-.78 14.183-7.7.411-6.92-4.645-12.85-11.294-13.245-6.648-.395-12.37 4.894-12.782 11.814-.411 6.92 3.245 8.736 9.893 9.13zm-2.116-11.381a2.215 2.215 0 10.262-4.422 2.215 2.215 0 00-.262 4.422z" fill="#F7CD55"/></svg>