<svg width="86" height="86" fill="none" xmlns="http://www.w3.org/2000/svg"><path d="M73.374 44.565c0 14.408-13.432 26.087-30 26.087-16.569 0-30-11.68-30-26.087s13.431-22.174 30-22.174c16.568 0 30 7.767 30 22.174z" fill="#FF4437"/><path fill-rule="evenodd" clip-rule="evenodd" d="M39.438 16.932A1.94 1.94 0 0141.386 15h2.448a1.94 1.94 0 011.947 1.932v5.23c1.59-.916 3.883-1.18 6.286-.775a14.888 14.888 0 017.148 3.352c.273.234.301.58.17.84a.722.722 0 01-.76.382c-2.163-.33-3.82-.302-5.024-.109-1.111.178-1.811.492-2.176.77.292.329.683.658 1.144 1.043l.023.02c.485.404 1.03.86 1.548 1.405 1.063 1.12 2.008 2.617 2.185 4.893a.693.693 0 01-.4.685.742.742 0 01-.776-.084c-2.863-2.223-6.536-2.704-8.357-2.655-.314 2.278-.885 5.51-1.625 8.107-.372 1.304-.793 2.475-1.259 3.286-.231.403-.491.749-.787.972-.307.232-.68.348-1.08.216-.35-.116-.635-.38-.866-.698-.234-.321-.437-.73-.616-1.192-.358-.926-.643-2.125-.867-3.416-.445-2.56-.667-5.55-.741-7.645-1.141.17-2.731.49-4.295.97-1.605.492-3.14 1.14-4.144 1.941a.786.786 0 01-.796.106.695.695 0 01-.435-.705c.328-3.727 3.296-6.596 5.297-7.961-1.58-.38-4.167-.849-6.562-.834a.722.722 0 01-.672-.43.67.67 0 01.189-.789c1.69-1.423 3.976-1.965 6.162-2.069 2.163-.102 4.28.222 5.743.597v-5.453z" fill="#4AAF1C"/><path fill-rule="evenodd" clip-rule="evenodd" d="M66.602 44.265a1.304 1.304 0 00-1.202 1.4c.264 3.465-1.393 5.392-2.367 6.525-.123.143-.236.274-.332.394a1.304 1.304 0 002.033 1.635c.07-.087.161-.192.27-.317.985-1.128 3.348-3.833 2.997-8.435a1.304 1.304 0 00-1.4-1.202zm-1.114-6.953c-.702.16-1.142.86-.981 1.561l.348 1.529a1.304 1.304 0 002.544-.58l-.349-1.529a1.304 1.304 0 00-1.562-.981z" fill="#fff"/></svg>