<svg width="86" height="86" fill="none" xmlns="http://www.w3.org/2000/svg"><path d="M13.34 33.982c.456-6.616 7.584-20.701 26.407-21.852 7.484-.759 22.451 1.594 27.005 12.524 5.693 13.663-6.83 19.355-6.83 26.187 0 5.465-1.194 15.65-1.79 20.06-1.288 3.902-35.268 1.564-38.489.003-3.22-1.56.028-26.453-1.794-27.557-2.576-1.56-5.152 0-4.508-9.365z" fill="#884F2D"/><path d="M65.9 58.175c0 4.37-.078 9.864-.937 12.726-1.288 3.902-35.774 2.882-38.994 1.321-3.22-1.56.533-27.771-1.288-28.875-2.577-1.561-5.153 0-4.509-9.365.644-9.365 7.729-21.852 26.406-21.852S70.952 24.617 72.24 34.762c1.189 9.365-3.12 7.804-4.408 8.585-2.88 1.745-1.932 9.365-1.932 14.828z" fill="#D0865B"/></svg>