<svg width="86" height="86" fill="none" xmlns="http://www.w3.org/2000/svg"><path d="M60.246 68.448c9.769-2.951 13.794-9.055 14.585-11.738C60.585 35.248 11.742 18.815 9.03 22.17c-2.714 3.353-1.018 9.054.678 13.414 1.696 4.36 14.585 19.786 20.69 25.822 6.106 6.037 17.639 10.731 29.85 7.043z" fill="#7A7057"/><path d="M11.045 19.395C6.463 24.75 13.28 33.614 17.75 37.87c1.9 2.016 7.846 8.331 16.43 17.469 10.729 11.42 34.87 11.42 40.57.671 5.7-10.75-2.116-18.35-6.706-23.178-6.706-7.055-19.112-10.75-29.17-12.766-10.059-2.015-21.794-7.726-27.83-.671z" fill="#E4F56D"/><path d="M61.936 48.566c-1.408 2.193-8.062 6.99-16.797.998-4.031-2.765-9.406-8.987-5.375-13.98 4.462-5.527 13.214-5.32 18.477-1.332 5.71 4.327 6.047 10.652 3.695 14.314z" fill="#884F2D"/></svg>