<svg width="86" height="86" viewBox="0 0 86 86" fill="none" xmlns="http://www.w3.org/2000/svg">
<path d="M80.1437 25.48C78.2034 27.5923 73.8481 27.5924 68.2529 30.1047C67.5604 25.0606 64.2526 23.2274 63.2178 20.5969C62.183 17.9664 65.1963 16.0768 67.6807 16.8807C70.1652 17.6847 69.3727 23.1604 72.1831 23.5143C74.9935 23.8682 77.5238 20.6495 79.2713 21.1132C81.0188 21.577 82.0839 23.3677 80.1437 25.48Z" fill="#884F2D"/>
<path d="M8.19876 67.9352C10.7404 67.32 12.6811 63.8592 17.1687 60.5151C13.4722 57.7523 13.4904 54.3198 11.8629 52.3437C10.2353 50.3675 7.39233 51.9331 6.92375 54.26C6.45516 56.5868 10.9157 57.8941 9.94453 60.2825C8.97336 62.6709 4.543 63.6427 4.1326 65.2347C3.7222 66.8267 5.65711 68.5505 8.19876 67.9352Z" fill="#884F2D"/>
<path fill-rule="evenodd" clip-rule="evenodd" d="M66.8363 25.5992C71.7929 27.4341 74.3234 32.9398 72.4884 37.8963C67.6005 51.0995 57.9482 58.9794 48.4057 63.366C39.0492 67.667 29.3791 68.8412 22.9576 68.5705C17.677 68.3479 13.5767 63.8867 13.7993 58.606C14.0219 53.3254 18.4832 49.2251 23.7638 49.4477C27.5519 49.6074 34.1487 48.8546 40.4116 45.9756C46.4883 43.1822 51.8078 38.6293 54.5392 31.2513C56.3742 26.2948 61.8798 23.7642 66.8363 25.5992Z" fill="#D0865B"/>
<path d="M31.9028 48.2294C29.2223 48.4502 29.2223 48.4502 27.7431 49.2025C31.3467 50.7969 31.2521 54.2719 31.1576 57.747C33.9326 54.0511 34.3051 49.2923 31.9028 48.2294Z" fill="#884F2D"/>
<path d="M43.6065 44.8916C41.0498 45.7262 41.0498 45.7262 39.7846 46.8002C43.6592 47.5181 44.3707 50.9209 45.0823 54.3236C46.9275 50.0863 46.1896 45.3702 43.6065 44.8916Z" fill="#884F2D"/>
<path d="M51.7298 36.3412C50.0604 38.4499 50.0604 38.4499 49.5996 40.0442C53.2254 38.5009 55.6991 40.9434 58.1729 43.3859C57.3685 38.8347 54.147 35.3124 51.7298 36.3412Z" fill="#884F2D"/>
</svg>
