<svg width="86" height="86" fill="none" xmlns="http://www.w3.org/2000/svg"><path d="M35.583 21.401L1.373 46.555l83.546-9.277c0-12.065-33.112-16.88-45.035-17.274-1.565-.052-3.05.477-4.301 1.397z" fill="#FFF0C6"/><path d="M3.537 65.226l-2.163-18.68 83.57-9.463-9.015 22.272a2 2 0 01-1.669 1.24L5.71 66.988a2 2 0 01-2.172-1.761z" fill="#EFC345"/><path d="M72.13 47.112c5.3 6.256 2.61 12.002-6.129 10.585 4.195-1.82 6.058-6.26 6.128-10.585zM16.62 62.11c-6.446-1.058-10.669-5.028-7.365-10.44.218 2.51 5.657 8.308 7.365 10.44zm35.776-5.303c1.398 1.332-3.857 2.654-3.583-1.155.32-4.469 8.775-3.581 6.278-8.347 5.958 4.645-4.477 7.806-2.695 9.502zm-25.461-3.01c7.328 3.122-.236 10.151-4.39 2.927 2.943 1.686 6.287.579 4.39-2.927zm40.517-16.714c.201 2.285 6.71 5.581 1.463 8.116 1.62-3.414-5.556-3.885-1.463-8.116z" fill="#2D57FF"/><path d="M25.887 38.24c3.862-.422 7.634 2.358 7.795 6.538.18 4.656-4.432-5.442-7.795-6.538zm22.938-2.705c-6.044 3.045-11.667-1.637-4.457-5.014-.968 3.342 1.438 4.492 4.457 5.014zm-1.209 3.641c6.345-2.354 11.413 2.925 3.872 5.48 1.334-3.215-.93-4.625-3.872-5.48zm7.093-11.739c9.992-2.992 6.877 5.86 9.046 8.382-6.83-2.174-1.948-6.687-9.046-8.382zM18.598 46.419c2.451 1.509-3.183 5.888-5.752-.274-2.081-4.992 6.445-4.78 4.665-9.062 3.99 4.514-6.078 4.925 1.087 9.336zM29.23 33.5c5.314-1.092 4.433-6.752 11.143-8.674-3.847 4.565-4.02 10.144-11.143 8.675z" fill="#8CA6F9"/><path d="M43.716 54.912c-12.386-5.829.329-8.504-3.612-15.6 8.006 4.373-3.032 12.47 3.612 15.6z" fill="#2D57FF"/></svg>