<svg width="88" height="86" fill="none" xmlns="http://www.w3.org/2000/svg"><path d="M57.13 47.716c10.653 1.687 18.014 2.853 18.014-11.722-.108-13.366-14.28-24.177-31.6-23.962-17.32.215-31.17 10.972-31.17 24.42.154 15.315 7.346 13.863 17.78 11.758 1.042-.21 2.116-.427 3.22-.634l.18 24.62a1.533 1.533 0 001.544 1.522l17.91-.132a1.533 1.533 0 001.522-1.544l-.181-24.757c.949.141 1.876.288 2.78.431z" fill="#D0865B"/><path d="M54.355 47.155c-.968-2.232-2.205-14.657 3.093-14.523 5.298.135 9.681 3.873 9.897 7.18.215 3.309-4.33 5.38-5.729 5.38-1.398 0-2.205-2.69-3.9-2.959-1.694-.269-2.689 6.509-3.361 4.922zm-20.789.323c.914-2.233 1.963-14.657-3.335-14.47-5.298.19-9.6 4.008-9.79 7.316-.187 3.308 4.412 5.379 5.81 5.379 1.398 0 2.151-2.69 3.846-3.012 1.694-.323 2.797 6.427 3.469 4.787z" fill="#fff"/></svg>