<svg width="87" height="86" viewBox="0 0 87 86" fill="none" xmlns="http://www.w3.org/2000/svg">
<path fill-rule="evenodd" clip-rule="evenodd" d="M32.2183 15.2248C32.4004 14.3497 33.2596 13.7875 34.1372 13.9691C36.0467 14.3643 38.7137 15.6029 40.7993 18.0415C42.9264 20.5286 44.3705 24.1741 43.8988 29.1913C43.8151 30.0812 43.0239 30.735 42.1314 30.6516C41.239 30.5681 40.5834 29.7791 40.667 28.8892C41.0609 24.6996 39.8602 21.9315 38.3296 20.1418C36.7574 18.3037 34.7539 17.4025 33.4776 17.1383C32.5999 16.9567 32.0361 16.1 32.2183 15.2248Z" fill="#884F2D"/>
<path d="M41.7221 22.7526C43.6447 26.598 54.9399 29.3619 63.3512 10.3752C47.0092 7.97184 39.1987 17.7055 41.7221 22.7526Z" fill="#4AAF1C"/>
<path d="M43.0047 74.0648C45.4639 75.9112 51.4556 76.9463 55.3008 74.9275C60.1073 72.4039 82.0833 47.9881 69.239 30.0829C61.9118 19.8685 49.172 18.787 42.2026 22.9929C35.4806 20.0052 21.7283 19.1209 14.9622 29.797C17.2786 29.1331 20.366 29.253 21.6542 32.8169C21.6759 32.8769 21.6971 32.938 21.7178 33C21.7852 33.202 21.8344 33.3916 21.8667 33.5692C22.0633 33.3655 22.332 33.2029 22.6825 33.0921C25.1431 33.0558 29.8658 34.2326 29.0723 39.2297C28.951 39.994 28.693 40.5018 28.3422 40.8015C28.3897 40.8844 28.4361 40.9676 28.4814 41.0509C28.7073 41.0494 28.9516 41.0948 29.215 41.1938C31.1728 42.6846 34.1609 46.5264 30.4513 49.9671C30.016 50.3708 29.6108 50.606 29.2376 50.7024C29.313 50.7758 29.3865 50.8584 29.4581 50.9504C30.3462 53.2454 30.8818 58.083 25.9201 59.0734C25.15 59.2271 24.5789 59.1572 24.175 58.9243C24.1943 59.0053 24.2099 59.0905 24.2214 59.18C23.9156 61.045 22.6701 64.0972 19.9439 64.66C25.0568 71.395 31.2208 75.9112 34.6433 75.9112C37.6473 75.9112 40.5454 75.9112 43.0047 74.0648Z" fill="#FF4437"/>
<path fill-rule="evenodd" clip-rule="evenodd" d="M62.3991 32.6158C61.8428 33.2296 61.8895 34.1782 62.5033 34.7346C65.4646 37.4182 65.6056 40.3383 65.6884 42.0535C65.6989 42.271 65.7085 42.4692 65.7227 42.6451C65.7897 43.4708 66.5134 44.0858 67.3392 44.0188C68.1649 43.9518 68.7799 43.2281 68.7129 42.4024C68.7026 42.275 68.696 42.1139 68.6883 41.9231C68.6185 40.2034 68.451 36.076 64.5179 32.5116C63.9041 31.9553 62.9555 32.0019 62.3991 32.6158Z" fill="white"/>
<path fill-rule="evenodd" clip-rule="evenodd" d="M55.9697 27.6917C55.5102 28.381 55.6965 29.3123 56.3857 29.7718L57.8857 30.7718C58.575 31.2314 59.5063 31.0451 59.9659 30.3558C60.4254 29.6665 60.2391 28.7352 59.5498 28.2757L58.0498 27.2757C57.3606 26.8161 56.4293 27.0024 55.9697 27.6917Z" fill="white"/>
</svg>
