<svg width="87" height="86" fill="none" xmlns="http://www.w3.org/2000/svg"><path fill-rule="evenodd" clip-rule="evenodd" d="M32.218 15.225a1.623 1.623 0 011.92-1.256c1.909.395 4.576 1.634 6.661 4.072 2.127 2.488 3.572 6.133 3.1 11.15a1.622 1.622 0 01-1.768 1.46 1.62 1.62 0 01-1.464-1.762c.394-4.19-.807-6.957-2.337-8.747-1.573-1.838-3.576-2.74-4.852-3.004a1.618 1.618 0 01-1.26-1.913z" fill="#884F2D"/><path d="M41.722 22.753c1.923 3.845 13.218 6.609 21.63-12.378-16.343-2.403-24.153 7.33-21.63 12.378z" fill="#4AAF1C"/><path d="M43.005 74.065c2.459 1.846 8.45 2.881 12.296.862 4.806-2.523 26.782-26.939 13.938-44.844-7.327-10.214-20.067-11.296-27.036-7.09-6.722-2.988-20.475-3.872-27.24 6.804 2.316-.664 5.403-.544 6.691 3.02l.064.183c.067.202.116.392.149.57.196-.205.465-.367.816-.478 2.46-.036 7.183 1.14 6.39 6.138-.122.764-.38 1.272-.73 1.572.047.082.093.166.138.249.226-.002.47.044.734.143 1.958 1.49 4.946 5.332 1.236 8.773-.435.404-.84.639-1.213.735.075.074.149.156.22.248.888 2.295 1.424 7.133-3.538 8.123-.77.154-1.341.084-1.745-.149.02.081.035.166.046.256-.305 1.865-1.55 4.917-4.277 5.48 5.113 6.735 11.277 11.251 14.7 11.251 3.003 0 5.901 0 8.36-1.846z" fill="#FF4437"/><path fill-rule="evenodd" clip-rule="evenodd" d="M62.4 32.616a1.5 1.5 0 00.103 2.119c2.962 2.683 3.103 5.603 3.185 7.319.01.217.02.415.035.591a1.5 1.5 0 002.99-.243c-.01-.127-.017-.288-.025-.479-.07-1.72-.237-5.847-4.17-9.411a1.5 1.5 0 00-2.119.104zm-6.43-4.924a1.5 1.5 0 00.416 2.08l1.5 1a1.5 1.5 0 101.664-2.496l-1.5-1a1.5 1.5 0 00-2.08.416z" fill="#fff"/></svg>