<svg width="87" height="86" viewBox="0 0 87 86" fill="none" xmlns="http://www.w3.org/2000/svg">
<path d="M6.62983 52.0191C7.41075 46.8804 11.665 39.8882 13.6945 37.0344C29.0765 31.2273 37.835 53.7279 31.6402 54.2522C25.4454 54.7765 19.5973 58.9468 17.4232 61.5912C15.249 64.2356 11.4077 67.3931 8.335 65.066C5.26231 62.7388 5.65368 58.4424 6.62983 52.0191Z" fill="#D0865B"/>
<path d="M80.191 56.0473C79.9759 50.8541 76.5105 43.4391 74.8048 40.3808C60.1488 32.9288 48.9858 54.3385 55.0863 55.5361C61.1868 56.7337 66.5446 61.5177 68.417 64.3836C70.2894 67.2496 73.763 70.8077 77.0714 68.8299C80.3799 66.8522 80.46 62.5387 80.191 56.0473Z" fill="#D0865B"/>
<path d="M18.9507 27.9957C23.4191 24.7324 28.762 24.6181 31.7364 25.4143C35.9285 33.9053 43.2234 51.9676 38.8656 56.2886C33.4184 61.6899 23.573 49.0608 20.1135 45.2444C16.5787 41.3448 13.4352 38.9201 13.197 36.1436C12.9535 33.3056 17.0807 29.3614 18.9507 27.9957Z" fill="#884F2D"/>
<path d="M70.567 30.8222C66.4817 27.0905 61.1831 26.3935 58.1396 26.8601C53.0454 34.8426 43.8219 52.0004 47.6818 56.7714C52.5067 62.7351 63.6722 51.2566 67.5277 47.8408C71.4672 44.3505 74.8567 42.2835 75.3966 39.5496C75.9486 36.7552 72.2767 32.3839 70.567 30.8222Z" fill="#884F2D"/>
<path d="M43.8791 61.6582C40.0861 61.4505 37.7651 57.3798 36.9861 54.9767C36.9861 54.9767 34.5029 45.9176 33.2789 40.0067C32.0705 34.1713 30.7483 24.9284 30.7483 24.9284C30.3804 23.0948 33.2997 16.5361 46.326 16.973C59.3523 17.41 61.361 24.6289 61.2532 26.5988C61.0174 30.9038 59.231 35.0785 57.3625 40.6346C55.4098 46.4411 53.0527 53.244 52.0829 55.8034C50.1852 60.8118 47.1475 61.8372 43.8791 61.6582Z" fill="#D0865B"/>
</svg>
