<svg width="87" height="86" fill="none" xmlns="http://www.w3.org/2000/svg"><path d="M6.63 52.02c.78-5.14 5.035-12.132 7.064-14.986 15.382-5.807 24.141 16.694 17.946 17.218-6.195.524-12.043 4.695-14.217 7.34-2.174 2.644-6.015 5.801-9.088 3.474-3.073-2.327-2.681-6.624-1.705-13.047zm73.561 4.027c-.215-5.193-3.68-12.608-5.386-15.666-14.656-7.452-25.82 13.958-19.719 15.155 6.1 1.198 11.459 5.982 13.331 8.848 1.872 2.866 5.346 6.424 8.654 4.446 3.309-1.978 3.389-6.291 3.12-12.783z" fill="#D0865B"/><path d="M18.95 27.996c4.47-3.264 9.812-3.378 12.786-2.582 4.192 8.491 11.487 26.554 7.13 30.875-5.448 5.4-15.293-7.228-18.753-11.045-3.534-3.9-6.678-6.324-6.916-9.1-.243-2.838 3.884-6.783 5.754-8.148zm51.617 2.826c-4.085-3.732-9.384-4.428-12.427-3.962C53.045 34.843 43.822 52 47.682 56.771c4.825 5.964 15.99-5.514 19.846-8.93 3.94-3.49 7.329-5.558 7.869-8.291.552-2.795-3.12-7.166-4.83-8.728z" fill="#884F2D"/><path d="M43.88 61.658c-3.794-.208-6.115-4.278-6.894-6.681 0 0-2.483-9.06-3.707-14.97-1.209-5.836-2.53-15.079-2.53-15.079-.369-1.833 2.55-8.392 15.577-7.955 13.026.437 15.035 7.656 14.927 9.626-.236 4.305-2.022 8.48-3.89 14.036-1.953 5.806-4.31 12.609-5.28 15.168-1.898 5.009-4.935 6.034-8.204 5.855z" fill="#D0865B"/></svg>