<svg width="86" height="86" viewBox="0 0 86 86" fill="none" xmlns="http://www.w3.org/2000/svg">
<path d="M35.5825 21.4015L1.37378 46.5546L84.9189 37.278C84.9189 25.213 51.8072 20.3975 39.884 20.0035C38.3194 19.9518 36.8337 20.4815 35.5825 21.4015Z" fill="#FFF0C6"/>
<path d="M3.53653 65.2256L1.37378 46.5465L84.9434 37.0834L75.9288 59.3549C75.6483 60.0478 75.0048 60.5264 74.2605 60.5958L5.70891 66.9869C4.62642 67.0878 3.66157 66.3055 3.53653 65.2256Z" fill="#EFC345"/>
<path d="M72.1294 47.1117C77.4294 53.3685 74.7402 59.1135 66.001 57.6972C70.1964 55.8765 72.0592 51.4368 72.1294 47.1117Z" fill="#2D57FF"/>
<path d="M16.6205 62.1103C10.1737 61.0523 5.95121 57.0819 9.25487 51.6705C9.47325 54.1809 14.9124 59.9776 16.6205 62.1103Z" fill="#2D57FF"/>
<path d="M52.3956 56.8074C53.7944 58.139 48.5392 59.4612 48.8128 55.6518C49.1338 51.1834 57.5879 52.0705 55.0913 47.3053C61.0494 51.9496 50.6138 55.1112 52.3956 56.8074Z" fill="#2D57FF"/>
<path d="M26.935 53.7973C34.2631 56.9191 26.6991 63.9483 22.5447 56.7242C25.4882 58.4098 28.8323 57.3029 26.935 53.7973Z" fill="#2D57FF"/>
<path d="M67.4521 37.0834C67.6532 39.3681 74.1622 42.6643 68.9155 45.1987C70.5357 41.7845 63.3587 41.3137 67.4521 37.0834Z" fill="#2D57FF"/>
<path d="M25.8875 38.2399C29.7493 37.8177 33.5213 40.5977 33.6823 44.7776C33.8616 49.4341 29.2501 39.3361 25.8875 38.2399Z" fill="#8CA6F9"/>
<path d="M48.8247 35.5349C42.7811 38.5802 37.158 33.8982 44.3677 30.5207C43.3995 33.8634 45.8065 35.0127 48.8247 35.5349Z" fill="#8CA6F9"/>
<path d="M47.6163 39.1765C53.9612 36.8224 59.0285 42.1008 51.4879 44.6553C52.8219 41.4411 50.5577 40.0311 47.6163 39.1765Z" fill="#8CA6F9"/>
<path d="M54.7086 27.4373C64.701 24.4451 61.5861 33.2961 63.7552 35.8186C56.9249 33.6449 61.8066 29.132 54.7086 27.4373Z" fill="#8CA6F9"/>
<path d="M18.5979 46.4186C21.0494 47.9275 15.4148 52.3074 12.846 46.1449C10.7649 41.1526 19.2911 41.3648 17.5112 37.0834C21.5012 41.5967 11.4328 42.0082 18.5979 46.4186Z" fill="#8CA6F9"/>
<path d="M29.2303 33.5008C34.5438 32.408 33.6634 26.7483 40.373 24.8265C36.5257 29.3906 36.3526 34.9701 29.2303 33.5008Z" fill="#8CA6F9"/>
<path d="M43.7157 54.9116C31.3298 49.0831 44.0448 46.4085 40.1036 39.3119C48.1099 43.6851 37.0719 51.7823 43.7157 54.9116Z" fill="#2D57FF"/>
</svg>
