<svg width="86" height="86" fill="none" xmlns="http://www.w3.org/2000/svg"><path d="M80.144 25.48c-1.94 2.112-6.296 2.112-11.891 4.625-.693-5.044-4-6.878-5.035-9.508-1.035-2.63 1.978-4.52 4.463-3.716 2.484.804 1.692 6.28 4.502 6.633 2.81.354 5.34-2.864 7.088-2.4 1.748.463 2.813 2.254.873 4.366zM8.199 67.935c2.541-.615 4.482-4.076 8.97-7.42-3.697-2.763-3.679-6.195-5.306-8.171-1.628-1.977-4.47-.41-4.94 1.916-.468 2.327 3.993 3.634 3.022 6.023-.972 2.388-5.402 3.36-5.812 4.952-.41 1.592 1.524 3.316 4.066 2.7z" fill="#884F2D"/><path fill-rule="evenodd" clip-rule="evenodd" d="M66.836 25.6a9.57 9.57 0 015.652 12.296C67.6 51.1 57.948 58.98 48.406 63.366c-9.357 4.301-19.027 5.475-25.448 5.204a9.57 9.57 0 01.806-19.123c3.788.16 10.385-.592 16.648-3.471 6.076-2.794 11.396-7.347 14.127-14.725A9.57 9.57 0 0166.836 25.6z" fill="#D0865B"/><path d="M31.903 48.23c-2.68.22-2.68.22-4.16.973 3.604 1.594 3.51 5.069 3.415 8.544 2.775-3.696 3.147-8.455.745-9.518zm11.703-3.338c-2.556.834-2.556.834-3.821 1.908 3.874.718 4.586 4.12 5.297 7.524 1.846-4.238 1.108-8.954-1.476-9.432zm8.124-8.551c-1.67 2.109-1.67 2.109-2.13 3.703 3.625-1.543 6.1.9 8.573 3.342-.805-4.551-4.026-8.074-6.443-7.045z" fill="#884F2D"/></svg>