<svg width="86" height="86" viewBox="0 0 86 86" fill="none" xmlns="http://www.w3.org/2000/svg">
<path d="M73.3738 44.5652C73.3738 58.9727 59.9423 70.6522 43.3738 70.6522C26.8052 70.6522 13.3738 58.9727 13.3738 44.5652C13.3738 30.1578 26.8052 22.3913 43.3738 22.3913C59.9423 22.3913 73.3738 30.1578 73.3738 44.5652Z" fill="#FF4437"/>
<path fill-rule="evenodd" clip-rule="evenodd" d="M39.4381 16.9318C39.4381 15.8649 40.31 15 41.3856 15H43.834C44.9096 15 45.7815 15.8649 45.7815 16.9318V22.1613C47.3704 21.2456 49.6644 20.9816 52.067 21.3866C54.4839 21.7941 57.0566 22.8852 59.2152 24.7392C59.4877 24.9732 59.5164 25.3197 59.3843 25.5783C59.2546 25.8321 58.9662 26.0131 58.6248 25.961C56.4623 25.631 54.8053 25.6592 53.6007 25.8522C52.4897 26.0302 51.7897 26.344 51.4247 26.6227C51.7173 26.951 52.1081 27.2798 52.5687 27.6645L52.5922 27.6841C53.0768 28.0887 53.6229 28.5447 54.1404 29.0898C55.2032 30.2094 56.1483 31.7074 56.3246 33.9835C56.3493 34.303 56.1643 34.5541 55.9259 34.6683C55.6917 34.7804 55.3891 34.7708 55.1493 34.5845C52.2864 32.3611 48.6131 31.8798 46.7921 31.929C46.4776 34.2066 45.9067 37.4383 45.1667 40.0356C44.7952 41.3398 44.3738 42.5108 43.9081 43.3222C43.6766 43.7255 43.417 44.071 43.1215 44.294C42.8137 44.5263 42.4404 44.6415 42.0415 44.5096C41.6902 44.3935 41.406 44.1297 41.1748 43.8118C40.9413 43.4907 40.7381 43.0819 40.559 42.6195C40.2007 41.6942 39.9164 40.4948 39.6919 39.2037C39.2467 36.6435 39.0252 33.6548 38.951 31.5591C37.8099 31.7283 36.2197 32.0482 34.6558 32.5283C33.0514 33.0208 31.5155 33.6698 30.5117 34.4705C30.2685 34.6644 29.9568 34.6784 29.7163 34.5763C29.4686 34.4713 29.2509 34.2184 29.2814 33.871C29.6086 30.144 32.5774 27.2752 34.5785 25.91C32.9978 25.5296 30.4108 25.0613 28.0156 25.0761C27.7027 25.078 27.4511 24.893 27.3437 24.6466C27.2333 24.3932 27.277 24.0722 27.5326 23.857C29.2229 22.434 31.5086 21.8918 33.6954 21.7883C35.8584 21.686 37.9751 22.0102 39.4381 22.3852V16.9318Z" fill="#4AAF1C"/>
<path fill-rule="evenodd" clip-rule="evenodd" d="M66.6015 44.2652C65.8832 44.3199 65.3453 44.9466 65.4 45.6649C65.6641 49.13 64.0067 51.0575 63.0331 52.1896C62.9096 52.3333 62.7971 52.4641 62.7009 52.5836C62.2494 53.1449 62.3383 53.9659 62.8996 54.4175C63.4609 54.8691 64.2819 54.7801 64.7335 54.2188C64.8032 54.1322 64.8954 54.0266 65.0046 53.9016C65.9891 52.7743 68.352 50.0689 68.0012 45.4666C67.9465 44.7483 67.3198 44.2104 66.6015 44.2652Z" fill="white"/>
<path fill-rule="evenodd" clip-rule="evenodd" d="M65.4882 37.3116C64.7859 37.4719 64.3464 38.1711 64.5067 38.8734L64.8554 40.4018C65.0157 41.1041 65.7149 41.5436 66.4172 41.3833C67.1196 41.2231 67.559 40.5238 67.3988 39.8215L67.05 38.2931C66.8898 37.5908 66.1905 37.1514 65.4882 37.3116Z" fill="white"/>
</svg>
