<svg width="86" height="86" viewBox="0 0 86 86" fill="none" xmlns="http://www.w3.org/2000/svg">
<path d="M13.3409 33.9819C13.7959 27.3663 20.924 13.2805 39.7468 12.1303C47.2306 11.3712 62.1982 13.7242 66.7524 24.6542C72.4451 38.3167 59.9211 44.0094 59.9211 50.8407C59.9211 56.3057 58.7284 66.4911 58.132 70.9006C56.8439 74.8027 22.8637 72.4649 19.6435 70.9041C16.4232 69.3432 19.6709 44.4506 17.8493 43.3469C15.2731 41.7861 12.6969 43.3469 13.3409 33.9819Z" fill="#884F2D"/>
<path d="M65.8995 58.1747C65.8995 62.5451 65.822 68.039 64.9633 70.9006C63.6752 74.8027 29.1889 73.7831 25.9687 72.2222C22.7484 70.6614 26.5022 44.4505 24.6806 43.3468C22.1044 41.786 19.5282 43.3468 20.1722 33.9818C20.8163 24.6169 27.9008 12.1302 46.5781 12.1302C65.2555 12.1302 70.9518 24.6169 72.2399 34.7623C73.4289 44.1273 69.1197 42.5664 67.8317 43.3468C64.9514 45.0919 65.8995 52.7118 65.8995 58.1747Z" fill="#D0865B"/>
</svg>
