<svg width="86" height="86" viewBox="0 0 86 86" fill="none" xmlns="http://www.w3.org/2000/svg">
<path d="M60.2462 68.4476C70.0148 65.4965 74.0398 59.3931 74.8312 56.7103C60.5854 35.2477 11.7424 18.8154 9.02893 22.1689C6.31544 25.5224 8.01137 31.2234 9.70731 35.583C11.4032 39.9426 24.2924 55.3689 30.3977 61.4052C36.5031 67.4416 48.0355 72.1365 60.2462 68.4476Z" fill="#7A7057"/>
<path d="M11.0447 19.3945C6.46265 24.7504 13.28 33.6153 17.7505 37.8704C19.6505 39.8859 25.5963 46.2013 34.1797 55.3385C44.9089 66.7599 69.0498 66.7599 74.7497 56.0103C80.4496 45.2607 72.6338 37.66 68.0439 32.8315C61.3381 25.7771 48.9324 22.0819 38.8737 20.0663C28.8151 18.0508 17.0799 12.3401 11.0447 19.3945Z" fill="#E4F56D"/>
<path d="M61.9362 48.5656C60.5275 50.759 53.8736 55.5561 45.1391 49.5642C41.1079 46.7988 35.7328 40.5765 39.764 35.5833C44.2258 30.057 52.9776 30.2636 58.2408 34.2518C63.9518 38.5792 64.2877 44.9039 61.9362 48.5656Z" fill="#884F2D"/>
</svg>
