<svg width="88" height="86" viewBox="0 0 88 86" fill="none" xmlns="http://www.w3.org/2000/svg">
<path d="M57.1291 47.7163C67.7834 49.4032 75.1438 50.5686 75.1438 35.9941C75.0362 22.6279 60.8632 11.8166 43.5436 12.0317C26.2241 12.2469 12.3738 23.0044 12.3738 36.4512C12.5279 51.7665 19.7197 50.3154 30.1535 48.2101C31.1957 47.9999 32.2702 47.7831 33.3733 47.5758L33.5538 72.1961C33.56 73.0427 34.2513 73.724 35.0979 73.7178L53.0087 73.5865C53.8553 73.5803 54.5365 72.8889 54.5303 72.0423L54.3489 47.2851C55.2976 47.4264 56.2252 47.5732 57.1291 47.7163Z" fill="#D0865B"/>
<path d="M54.3549 47.1549C53.3867 44.9227 52.1496 32.4978 57.4477 32.6323C62.7457 32.7667 67.1294 36.505 67.3446 39.8129C67.5597 43.1208 63.0147 45.1917 61.6162 45.1917C60.2177 45.1917 59.4109 42.5023 57.7166 42.2333C56.0223 41.9644 55.0272 48.7416 54.3549 47.1549Z" fill="white"/>
<path d="M33.566 47.4777C34.4804 45.2455 35.5293 32.8206 30.2312 33.0088C24.9331 33.1971 20.6302 37.016 20.4419 40.3239C20.2536 43.6319 24.8525 45.7027 26.2509 45.7027C27.6494 45.7027 28.4024 43.0133 30.0967 42.6906C31.7911 42.3679 32.8937 49.1182 33.566 47.4777Z" fill="white"/>
</svg>
