<?xml version="1.0" encoding="UTF-8" standalone="no"?>
<svg
   xmlns:dc="http://purl.org/dc/elements/1.1/"
   xmlns:cc="http://creativecommons.org/ns#"
   xmlns:rdf="http://www.w3.org/1999/02/22-rdf-syntax-ns#"
   xmlns:svg="http://www.w3.org/2000/svg"
   xmlns="http://www.w3.org/2000/svg"
   xmlns:sodipodi="http://sodipodi.sourceforge.net/DTD/sodipodi-0.dtd"
   xmlns:inkscape="http://www.inkscape.org/namespaces/inkscape"
   viewBox="0 0 21.000001 31.000001"
   version="1.1"
   id="svg170"
   sodipodi:docname="Avo_Light_Clean.svg"
   width="21"
   height="31"
   inkscape:version="0.92.4 (unknown)">
  <metadata
     id="metadata174">
    <rdf:RDF>
      <cc:Work
         rdf:about="">
        <dc:format>image/svg+xml</dc:format>
        <dc:type
           rdf:resource="http://purl.org/dc/dcmitype/StillImage" />
        <dc:title></dc:title>
      </cc:Work>
    </rdf:RDF>
  </metadata>
  <sodipodi:namedview
     pagecolor="#ffffff"
     bordercolor="#666666"
     borderopacity="1"
     objecttolerance="10"
     gridtolerance="10"
     guidetolerance="10"
     inkscape:pageopacity="0"
     inkscape:pageshadow="2"
     inkscape:window-width="1920"
     inkscape:window-height="1025"
     id="namedview172"
     showgrid="false"
     fit-margin-top="0"
     fit-margin-left="0"
     fit-margin-right="0"
     fit-margin-bottom="0"
     inkscape:zoom="5.2039693"
     inkscape:cx="10.995362"
     inkscape:cy="15.271992"
     inkscape:window-x="0"
     inkscape:window-y="27"
     inkscape:window-maximized="1"
     inkscape:current-layer="svg170"
     inkscape:pagecheckerboard="true"
     inkscape:showpageshadow="false" />
  <defs
     id="defs163">
    <style
       id="style161">.cls-1{fill:#8ca6f9;}.cls-2{fill:#2d57ff;}</style>
  </defs>
  <g
     id="Layer_2"
     data-name="Layer 2"
     transform="translate(-12.448281,-7.1390877)">
    <path
       class="cls-1"
       d="m 24,7.24 a 7.37,7.37 0 0 0 -4.63,1.54 6.53,6.53 0 0 0 -1.68,2.55 c -2.43,5.63 -3,4.8 -4,8.12 -0.79,2.49 -1.68,5.3 -1,8.86 a 12.53,12.53 0 0 0 3.49,6.84 9.92,9.92 0 0 0 4.76,2.75 9.78,9.78 0 0 0 6.73,-0.9 c 3.77,-2.1 4.7,-6.19 5,-7.67 0.47,-2.07 0.23,-4 -0.25,-7.79 A 44.21,44.21 0 0 0 30.76,14 15.06,15.06 0 0 0 28.07,8.76 4.44,4.44 0 0 0 26.59,7.62 5.15,5.15 0 0 0 24,7.24 Z"
       id="path165"
       inkscape:connector-curvature="0"
       style="fill:#8ca6f9" />
    <path
       class="cls-2"
       d="m 22.86,19.71 c -3.28,-0.23 -5.29,3.06 -5.64,5.94 a 5,5 0 0 0 4.72,5.79 5.59,5.59 0 0 0 4.21,-1.31 5.35,5.35 0 0 0 1.46,-4.08 c -0.08,-2.52 -1.75,-6.12 -4.75,-6.34 z"
       id="path167"
       inkscape:connector-curvature="0"
       style="fill:#2d57ff" />
  </g>
</svg>
