<svg enable-background="new 0 0 512 512" version="1.1" viewBox="0 0 512 512" xml:space="preserve" xmlns="http://www.w3.org/2000/svg">
		<path d="m256 0c-141.16 0-256 114.84-256 256s114.84 256 256 256c141.16 0 256-114.84 256-256s-114.84-256-256-256zm-190.04 175.34c8.21 2.53 15.533 5.275 22.563 7.911 21.375 8.017 39.834 14.939 79.383 14.939 39.551 0 58.013-6.922 79.39-14.939 22.615-8.481 48.25-18.093 96.786-18.093s74.169 9.612 96.786 18.093c3.254 1.219 6.44 2.41 9.644 3.558 6.203 17.388 10.136 35.842 11.442 55.007-15.203-3.457-27.227-7.951-38.483-12.172-21.375-8.017-39.837-14.939-79.388-14.939s-58.013 6.922-79.388 14.939c-22.619 8.483-48.254 18.095-96.79 18.095-48.534 0-74.167-9.612-96.783-18.093-6.35-2.382-12.455-4.659-18.921-6.694 2.685-16.613 7.349-32.57 13.759-47.612zm380.08 161.31c-8.212-2.53-15.54-5.272-22.568-7.908-21.375-8.017-39.837-14.939-79.388-14.939s-58.013 6.922-79.388 14.939c-22.617 8.481-48.252 18.093-96.788 18.093-48.534 0-74.167-9.612-96.783-18.093-3.25-1.219-6.436-2.408-9.637-3.554-6.205-17.39-10.138-35.847-11.444-55.015 15.208 3.457 27.222 7.954 38.479 12.177 21.377 8.015 39.835 14.937 79.385 14.937 39.551 0 58.013-6.922 79.39-14.939 22.615-8.481 48.25-18.093 96.786-18.093s74.169 9.612 96.786 18.093c6.354 2.382 12.453 4.666 18.924 6.701-2.683 16.607-7.347 32.562-13.754 47.601z"/>
</svg>
