<svg width="421.64" height="420.49" fill="#000000" version="1.1" viewBox="0 0 42.164 42.049" xmlns="http://www.w3.org/2000/svg">
    <path d="m21.057 0.0045173c-0.04297 0.007813-0.08594 0.019531-0.125 0.03125-0.46484 0.10547-0.79297 0.52344-0.78125 1v6c-0.0039 0.35938 0.18359 0.69531 0.49609 0.87891 0.3125 0.17969 0.69531 0.17969 1.0078 0 0.3125-0.18359 0.5-0.51953 0.49609-0.87891v-6c0.01172-0.28906-0.10547-0.56641-0.3125-0.76172-0.21094-0.19922-0.49609-0.29688-0.78125-0.26953zm-14.25 5.875c-0.375 0.066406-0.67578 0.33984-0.78125 0.70312-0.10547 0.36719 0.00391 0.75781 0.28125 1.0156l4.25 4.25c0.24219 0.29688 0.62891 0.43359 1.0039 0.34766 0.37109-0.08594 0.66406-0.37891 0.75-0.75 0.08594-0.375-0.05078-0.76172-0.34766-1.0039l-4.25-4.25c-0.20703-0.22266-0.50781-0.33594-0.8125-0.3125h-0.09375zm28.375 0c-0.22656 0.03125-0.4375 0.14453-0.59375 0.3125l-4.25 4.25c-0.29688 0.24219-0.43359 0.62891-0.34766 1.0039 0.08594 0.37109 0.37891 0.66406 0.75 0.75 0.375 0.08594 0.76172-0.05078 1.0039-0.34766l4.25-4.25c0.3125-0.29688 0.40234-0.76172 0.21875-1.1523-0.1875-0.39453-0.60156-0.62109-1.0312-0.56641zm-14.125 5.1562c-0.03125 0.0078-0.0625 0.01953-0.09375 0.03125-0.0625 0.0039-0.125 0.01563-0.1875 0.03125l-0.03125 0.03125c-5.3047 0.22656-9.5938 4.5469-9.5938 9.9062 0 5.5039 4.4961 10 10 10s10-4.4961 10-10c0-5.3398-4.2539-9.6445-9.5312-9.9062-0.03516 0-0.05859-0.03125-0.09375-0.03125-0.10156-0.03906-0.20703-0.05859-0.3125-0.0625h-0.0625-0.09375zm0.03125 2h0.0625 0.09375c4.375 0.05078 7.9062 3.6133 7.9062 8 0 4.4219-3.5781 8-8 8-4.418 0-8-3.5781-8-8 0-4.3984 3.5469-7.9648 7.9375-8zm-20.219 7c-0.55078 0.07813-0.9375 0.58984-0.85938 1.1406s0.58984 0.9375 1.1406 0.85938h6c0.35938 0.0039 0.69531-0.18359 0.87891-0.49609 0.17969-0.3125 0.17969-0.69531 0-1.0078-0.18359-0.3125-0.51953-0.5-0.87891-0.49609h-6-0.09375-0.09375-0.09375zm34 0c-0.55078 0.07813-0.9375 0.58984-0.85938 1.1406 0.07813 0.55078 0.58984 0.9375 1.1406 0.85938h6c0.35938 0.0039 0.69531-0.18359 0.87891-0.49609 0.17969-0.3125 0.17969-0.69531 0-1.0078-0.18359-0.3125-0.51953-0.5-0.87891-0.49609h-6-0.09375-0.09375-0.09375zm-23.719 9.875c-0.22656 0.03125-0.4375 0.14453-0.59375 0.3125l-4.25 4.25c-0.29688 0.24219-0.43359 0.62891-0.34766 1.0039 0.085937 0.37109 0.37891 0.66406 0.75 0.75 0.375 0.08594 0.76172-0.05078 1.0039-0.34766l4.25-4.25c0.29688-0.28516 0.38672-0.72656 0.22656-1.1055-0.15625-0.37891-0.53516-0.62109-0.94531-0.61328h-0.09375zm19.688 0c-0.375 0.06641-0.67578 0.33984-0.78125 0.70312-0.10547 0.36719 0.0039 0.75781 0.28125 1.0156l4.25 4.25c0.24219 0.29688 0.62891 0.43359 1.0039 0.34766 0.37109-0.08594 0.66406-0.37891 0.75-0.75 0.08594-0.375-0.05078-0.76172-0.34766-1.0039l-4.25-4.25c-0.1875-0.19922-0.44531-0.30859-0.71875-0.3125h-0.09375-0.09375zm-9.7812 4.0938c-0.04297 0.0078-0.08594 0.01953-0.125 0.03125-0.46484 0.10547-0.79297 0.52344-0.78125 1v6c-0.0039 0.35938 0.18359 0.69531 0.49609 0.87891 0.3125 0.17969 0.69531 0.17969 1.0078 0 0.3125-0.18359 0.5-0.51953 0.49609-0.87891v-6c0.01172-0.28906-0.10547-0.56641-0.3125-0.76172-0.21094-0.19922-0.49609-0.29688-0.78125-0.26953z"/>
</svg>
