<svg width="24" height="24" version="1.1" viewBox="0 0 24 24" xmlns="http://www.w3.org/2000/svg">
    <path d="m0 0h24v24h-24z" fill="none"/>
    <path d="m6.3194 4.694-1.9663-1.9553-1.5402 1.5402 1.9553 1.9553zm-3.0149 6.1828h-3.2771v2.1847h3.2771zm9.8313-10.869h-2.1847v3.2225h2.1847zm8.1381 4.2711-1.5402-1.5402-1.9553 1.9553 1.5402 1.5402zm-3.5065 14.965 1.9553 1.9663 1.5402-1.5402-1.9663-1.9553zm3.0149-8.3675v2.1847h3.2771v-2.1847zm-8.7389-5.4618c-3.6157 0-6.5542 2.9385-6.5542 6.5542 0 3.6157 2.9385 6.5542 6.5542 6.5542 3.6157 0 6.5542-2.9385 6.5542-6.5542 0-3.6157-2.9385-6.5542-6.5542-6.5542zm-1.0924 18.516h2.1847v-3.2225h-2.1847zm-8.1381-4.2711 1.5402 1.5402 1.9553-1.9663-1.5402-1.5402z" stroke-width="1.0924"/>
</svg>
